<svg xmlns="http://www.w3.org/2000/svg" version="1.0" width="120pt" height="120pt" viewBox="0 0 80 120" preserveAspectRatio="xMidYMid meet">
<g transform="translate(-145,288) scale(0.1,-0.1)" fill="white" stroke="none">

<path d="M1772 2859 c-118 -23 -233 -113 -287 -224 -27 -54 -30 -70 -30 -160 0 -92 3 -105 32 -166 40 -82 111 -150 201 -192 60 -28 76 -32 162 -32 86 0 102 4 162 32 90 42 161 110 201 192 29 61 32 74 32 166 0 90 -3 106 -30 160 -33 69 -112 153 -173 184 -48 24 -154 51 -197 50 -16 -1 -49 -5 -73 -10z m186 -208 c137 -70 164 -261 51 -368 -111 -105 -290 -75 -361 60 -34 64 -32 157 5 219 63 108 193 146 305 89z"/>

<path d="M1799 2543 c-127 -78 -21 -266 111 -198 34 17 60 62 60 100 0 86 -99 143 -171 98z"/>
<path d="M1486 2138 c16 -27 359 -467 364 -467 7 0 368 463 365 467 -2 2 -24 -13 -51 -33 -108 -83 -218 -119 -338 -113 -70 4 -94 10 -166 45 -47 23 -107 58 -134 79 -27 20 -45 30 -40 22z"/>
</g>
</svg>