<svg xmlns="http://www.w3.org/2000/svg" version="1.0" width="482pt" height="482pt" viewBox="0 0 482 482">
<g transform="translate(-23,1213) scale(0.245,-0.245)" fill="white" stroke="none">
<path d="M961 4938 c0 -9 -9 -21 -18 -27 -11 -6 -22 -32 -29 -66 -10 -49 -9 -60 8 -93 40 -79 32 -152 -17 -152 -18 0 -30 10 -44 39 -16 30 -31 43 -74 60 -61 25 -84 46 -120 109 -23 40 -25 42 -31 20 -3 -13 -6 -43 -6 -68 0 -38 6 -53 41 -95 52 -63 69 -96 69 -135 0 -26 -3 -30 -29 -30 -16 0 -34 7 -42 16 -19 23 -65 44 -97 44 -59 0 -93 13 -132 52 -46 44 -65 41 -57 -9 10 -57 46 -102 119 -149 68 -44 95 -81 83 -112 -4 -11 -14 -13 -43 -6 -20 4 -82 8 -137 8 -87 1 -107 4 -153 27 -45 23 -52 24 -52 9 0 -23 51 -92 83 -113 14 -9 58 -23 98 -31 74 -16 103 -33 112 -67 6 -24 -19 -39 -66 -39 -19 0 -68 -16 -108 -34 -67 -32 -78 -34 -119 -26 -63 13 -80 12 -80 -3 0 -19 37 -51 89 -77 40 -20 50 -21 99 -11 80 16 126 14 153 -7 31 -26 21 -44 -43 -75 -32 -16 -63 -41 -78 -63 -30 -45 -75 -74 -115 -74 -43 0 -63 -15 -49 -37 27 -43 111 -42 200 1 88 43 110 49 140 42 20 -5 24 -11 18 -29 -3 -12 -22 -36 -40 -53 -36 -33 -54 -70 -54 -109 0 -27 -45 -85 -66 -85 -20 0 -67 -48 -59 -60 16 -25 136 3 174 41 14 14 43 44 63 67 40 44 85 58 105 32 9 -11 6 -24 -14 -58 -23 -39 -25 -50 -19 -108 6 -58 4 -69 -19 -108 -14 -24 -32 -47 -40 -50 -17 -6 -20 -32 -5 -41 14 -9 72 19 113 54 23 20 42 50 52 82 20 59 69 121 91 112 10 -4 14 -22 14 -67 0 -45 7 -74 25 -110 29 -57 31 -91 10 -159 -14 -48 -14 -48 8 -42 27 9 55 38 84 87 17 28 22 54 22 100 -1 74 12 112 41 128 28 15 29 13 39 -49 7 -45 16 -59 59 -102 37 -36 53 -60 57 -87 10 -54 21 -87 30 -87 12 0 44 104 45 142 0 18 -9 47 -20 65 -24 40 -25 82 -1 127 l18 33 36 -51 c28 -39 53 -59 102 -83 42 -21 68 -41 75 -57 6 -15 24 -42 40 -61 l29 -35 1 65 c0 69 -10 91 -77 180 -32 41 -40 79 -27 114 9 23 20 20 64 -15 31 -25 52 -33 110 -39 71 -8 96 -21 141 -74 23 -27 43 -11 35 28 -11 52 -53 104 -111 137 -66 37 -98 74 -89 103 11 36 21 40 65 19 33 -16 50 -18 83 -11 98 20 114 20 175 -1 74 -25 72 -25 64 -3 -19 54 -117 121 -178 122 -16 0 -48 11 -70 23 -34 20 -40 27 -40 57 l0 34 53 -3 c45 -2 60 2 105 31 45 29 62 33 128 37 70 3 76 5 72 22 -11 39 -126 71 -202 57 -59 -12 -111 -4 -142 21 -30 24 -15 45 45 60 44 11 88 50 101 90 6 19 95 71 121 71 6 0 17 7 25 16 19 23 -4 34 -71 34 -43 0 -72 -8 -129 -35 -76 -37 -131 -44 -150 -21 -16 19 2 62 29 71 27 8 46 40 55 89 8 46 24 68 87 124 49 42 51 52 9 52 -44 0 -124 -44 -171 -95 -54 -57 -101 -80 -130 -65 -26 14 -25 29 5 71 24 31 25 40 19 97 -7 65 4 109 36 147 31 37 32 55 4 55 -34 0 -129 -95 -138 -138 -4 -17 -21 -49 -37 -71 -22 -32 -36 -41 -58 -41 -37 0 -43 17 -25 68 15 45 12 58 -24 116 -25 40 -26 73 -6 174 l6 33 -30 -28 c-55 -51 -72 -91 -72 -168 0 -52 -5 -78 -20 -103 -38 -62 -80 -50 -80 24 0 39 -4 46 -46 80 -56 46 -66 64 -74 139 -4 33 -8 52 -9 43z"/>
</g>
</svg>