<svg xmlns="http://www.w3.org/2000/svg" version="1.0" width="540pt" height="540pt" viewBox="0 0 540 540">
<g transform="translate(-570,1235) scale(0.245,-0.245)" fill="white" stroke="none">
<path d="M3217 4869 c-9 -6 -26 -28 -37 -49 -11 -22 -34 -55 -51 -74 -54 -62 -43 -71 102 -74 111 -2 127 -1 133 14 4 10 -1 26 -13 38 -10 12 -35 46 -54 76 -44 70 -57 81 -80 69z"/>
<path d="M2786 4748 c-3 -13 -7 -66 -10 -119 -5 -81 -4 -98 9 -103 17 -6 60 8 69 23 4 5 31 22 62 38 30 15 64 37 75 50 22 22 19 43 -6 43 -8 0 -53 20 -99 45 -47 25 -88 45 -91 45 -2 0 -7 -10 -9 -22z"/>
<path d="M3650 4759 c-42 -13 -192 -94 -194 -104 -1 -10 146 -105 193 -125 39 -17 45 0 42 106 -3 120 -8 133 -41 123z"/>
<path d="M3085 4589 c-89 -22 -188 -82 -272 -164 -46 -44 -83 -83 -83 -87 0 -4 -13 -29 -29 -56 -39 -67 -71 -198 -71 -293 0 -87 32 -204 74 -274 14 -22 32 -55 41 -73 28 -53 159 -151 276 -206 53 -25 64 -26 211 -26 170 0 161 -2 308 75 l55 28 413 3 c405 3 415 4 449 25 55 34 71 69 62 133 -9 69 -30 99 -98 145 -54 35 -56 38 -59 86 -6 85 -59 135 -163 155 -42 8 -62 20 -110 65 -72 66 -127 85 -248 85 -74 0 -93 -4 -139 -28 -77 -40 -147 -114 -173 -181 -26 -71 -32 -77 -76 -86 -62 -11 -140 -52 -181 -94 -44 -46 -67 -110 -65 -181 1 -39 7 -49 40 -77 21 -18 54 -35 73 -39 92 -16 89 -27 -15 -43 -265 -43 -513 121 -587 387 -47 174 7 365 141 499 198 197 528 204 731 16 19 -18 38 -33 43 -33 4 0 7 -6 7 -13 0 -21 74 -87 98 -87 80 0 -69 198 -207 276 -100 56 -138 66 -276 70 -71 2 -148 -1 -170 -7z"/>
<path d="M2460 4434 c0 -13 16 -50 35 -83 19 -32 35 -64 35 -70 0 -16 37 -51 54 -51 16 0 126 183 126 209 0 16 -14 17 -125 18 -124 0 -125 0 -125 -23z"/>
<path d="M3750 4448 c0 -19 72 -144 96 -165 20 -19 28 -20 54 -11 18 6 37 23 47 42 9 17 19 33 22 36 14 12 43 79 39 92 -4 10 -35 13 -131 14 -70 0 -127 -3 -127 -8z"/>
<path d="M2465 4080 c-38 -22 -77 -40 -86 -40 -8 0 -24 -6 -34 -14 -18 -13 -18 -15 -2 -39 23 -36 171 -119 205 -115 l27 3 -3 105 c-4 117 -8 140 -25 140 -7 0 -43 -18 -82 -40z"/>
<path d="M2555 3728 c-8 -13 -36 -52 -61 -86 -25 -35 -43 -70 -40 -78 9 -23 52 -34 136 -34 126 0 160 26 109 81 -17 18 -37 46 -46 63 -20 40 -53 76 -69 76 -7 0 -20 -10 -29 -22z"/>
<path d="M3634 3459 c-21 -12 -50 -28 -64 -37 -13 -8 -43 -21 -65 -27 -35 -11 -40 -16 -40 -41 0 -25 10 -34 80 -75 98 -56 131 -66 143 -42 9 16 -1 229 -10 239 -2 2 -22 -6 -44 -17z"/>
<path d="M2786 3448 c-3 -13 -7 -64 -10 -114 -6 -101 1 -119 45 -106 42 12 189 103 189 117 0 27 -13 45 -31 45 -10 0 -52 18 -94 40 -42 22 -80 40 -85 40 -5 0 -12 -10 -14 -22z"/>
<path d="M3108 3323 c-10 -13 0 -36 61 -147 51 -92 81 -93 128 -1 15 31 36 70 45 88 34 64 31 65 -103 69 -86 2 -124 0 -131 -9z"/>
</g>
</svg>